<svg
  width="800"
  height="664"
  viewBox="0 0 800 664"
  fill="currentColor"
  xmlns="http://www.w3.org/2000/svg"
>
<path
    d="M93.5341 299.766C97.1056 296.92 101.236 291.142 103.208 287.021C125.005 241.32 187.376 228.141 246.763 230.943C310.345 233.937 389.567 245.591 401.217 235.603C411.788 226.538 392.75 233.383 371.471 219.034C367.681 216.476 368.553 214.694 373.096 215.26C388.056 217.104 419.965 218.513 438.189 200.66C441.466 197.468 445.778 191.31 447.274 186.989C455.344 163.702 416.892 157.643 415.603 180.46C415.344 185.017 414.823 185.341 413.526 180.956C410.314 170.123 408.551 150.854 432.843 143.383C463.017 134.095 489.392 136.953 500.3 123.072C503.121 119.48 500.566 116.975 496.137 118.106C478.559 122.615 434.572 130.092 392.654 106.71C388.67 104.483 389.123 103.486 393.592 104.427C412.897 108.507 462.775 114.756 495.751 80.4677C526.455 48.5385 553.707 57.9227 565.886 65.0425C569.844 67.3506 575.581 67.5325 579.319 64.9099C585.717 60.4154 596.255 53.5212 608.767 47.2669C608.767 47.2669 628.985 39.2774 635.979 13.3058C642.97 -12.6535 649.71 8.5652 648.955 20.0551C648.543 26.4516 647.888 34.7118 647.399 40.7692C647.027 45.3198 649.063 51.8831 652.299 55.1114C656.244 59.059 661.574 63.6492 665.939 64.7362C673.924 66.7285 682.414 70.4792 686.661 84.4577C690.908 98.4361 716.621 111.917 729.597 118.159C742.574 124.398 766.8 142.373 762.056 152.86C757.315 163.346 769.297 176.072 747.068 182.324C724.846 188.563 722.854 184.566 718.36 175.578C714.295 167.448 694.102 174.839 670.704 165.803C666.436 164.154 659.567 163.238 655.02 163.718C649.112 164.344 640.978 164.454 633.967 161.847C621.237 157.103 627.978 169.339 627.978 176.071C627.978 182.08 626.583 241.81 623.101 268.526C622.516 273.06 623.598 279.89 625.651 283.976C634.298 301.239 652.997 345.832 636.242 381.143C634.282 385.272 635.418 390.243 639.519 392.239C650.437 397.565 672.393 406.536 697.124 407.005C732.411 407.667 740.739 429.643 742.4 437.969C744.065 446.293 783.013 494.398 781.009 511.371C779.178 526.903 798.263 536.587 799.985 564.519C800.268 569.077 796.327 572.189 791.915 570.985C779.602 567.615 757.545 558.918 757.545 539.837C757.545 513.375 759.541 519.115 748.557 500.396C738.204 482.753 730.514 445.607 687.901 441.162C683.359 440.693 676.024 441.527 671.531 442.35C665.805 443.401 658.067 444.613 651.9 444.871C647.334 445.067 645.884 447.233 647.903 451.337C650.486 456.592 653.153 464.173 652.349 471.98C651.875 476.521 647.043 481.89 643.261 484.451C631.675 492.306 608.31 509.344 595.047 527.424C592.339 531.109 587.489 536.775 582.944 537.276C579.065 537.697 573.345 537.421 565.054 535.345C544.081 530.108 541.591 539.346 539.587 541.583C537.59 543.831 525.358 534.842 506.886 536.598C506.886 536.598 498.403 536.598 512.879 523.868C523.863 514.21 527.23 504.987 534.209 502.077C538.427 500.316 546.125 501.649 550.345 503.419C555.57 505.601 555.437 508.881 558.564 515.137C562.811 523.623 570.053 512.138 573.791 509.14C577.542 506.149 617.988 487.423 615.24 468.204C612.491 448.976 586.528 466.7 544.832 455.969C521.163 449.866 506.987 447.401 499.147 446.399C494.613 445.826 487.206 445.51 482.631 445.373C470.737 445.034 449.442 445.146 442.216 449.729C432.533 455.872 340.45 455.977 296.491 432.322C292.474 430.146 289.427 431.723 289.087 436.281C288.538 443.847 287.115 454.573 283.429 459.471C278.224 466.413 281.877 498.782 297.161 508.471C301.016 510.928 308.588 511.486 313.14 512.004C333.847 514.34 368.139 519.633 381.716 527.983C385.619 530.375 390.364 535.952 393.985 538.74C405.013 547.234 426.177 565.717 429.983 585.058C430.86 589.543 426.782 593.569 422.219 593.649C415.193 593.787 404.868 593.544 395.961 591.653C391.495 590.7 386.987 585.73 385.094 581.566C380.157 570.697 368.445 551.792 345.615 548.097C319.226 543.839 290.026 539.248 275.211 534.988C270.813 533.736 266.19 535.619 265.254 540.087C264.041 545.826 263.17 553.731 265.222 560.584C268.955 573.062 290.187 608.018 316.891 623.001C337.678 634.648 350.593 643.578 354.489 652.848C356.268 657.059 351.936 661.561 347.4 662.071C336.102 663.339 316.188 664.462 307.661 658.208C304.986 656.236 303.095 654.571 301.785 653.165C298.851 650.036 300.436 643.708 299.506 640.532C298.958 638.657 297.687 637.235 294.932 637.979C288.441 639.724 285.444 641.72 281.692 632.992C277.943 624.247 238.009 580.556 222.022 572.068C206.043 563.574 207.789 546.351 214.028 527.625C220.274 508.907 224.267 468.457 202.802 454.975C181.328 441.494 145.127 405.545 130.402 385.573C122.474 374.824 109.123 365.66 101.13 351.079C98.9228 347.07 95.8271 346.747 93.7173 350.804C76.3012 384.304 67.8633 426.435 93.426 445.485C127.492 470.872 109.066 496.847 98.179 507.904C94.9698 511.161 94.308 510.466 96.4657 506.441C111.701 478.072 78.1677 472.221 72.3647 486.503C67.6623 498.1 76.5447 529.589 81.1992 544.37C82.5651 548.728 80.4635 550.433 77.2789 547.158C72.6162 542.365 69.1076 536.134 66.8282 531.286C64.8975 527.148 64.5665 527.245 65.3172 531.755C72.6804 575.633 55.4326 602.764 45.9131 613.941C42.9555 617.425 41.2012 616.301 41.9204 611.791C49.5899 563.711 0.00680646 538.463 -0.00139769 446.859C0.0314189 385.521 54.0612 331.237 93.5341 299.766Z"
  />
</svg>
